<?xml version="1.0" encoding="UTF-8" standalone="no"?>
<!-- Created with Inkscape (http://www.inkscape.org/) -->

<svg
   xmlns:dc="http://purl.org/dc/elements/1.1/"
   xmlns:cc="http://creativecommons.org/ns#"
   xmlns:rdf="http://www.w3.org/1999/02/22-rdf-syntax-ns#"
   xmlns:svg="http://www.w3.org/2000/svg"
   xmlns="http://www.w3.org/2000/svg"
   xmlns:sodipodi="http://sodipodi.sourceforge.net/DTD/sodipodi-0.dtd"
   xmlns:inkscape="http://www.inkscape.org/namespaces/inkscape"
   width="744.09003"
   height="229"
   id="svg8136"
   version="1.1"
   inkscape:version="0.48.0 r"
   sodipodi:docname="huygens.svg">
  <defs
     id="defs8138">
    <marker
       inkscape:stockid="Arrow1Lend"
       orient="auto"
       refY="0.0"
       refX="0.0"
       id="Arrow1Lend"
       style="overflow:visible;">
      <path
         id="path3972"
         d="M 0.0,0.0 L 5.0,-5.0 L -12.5,0.0 L 5.0,5.0 L 0.0,0.0 z "
         style="fill-rule:evenodd;stroke:#000000;stroke-width:1.0pt;marker-start:none;"
         transform="scale(0.8) rotate(180) translate(12.5,0)" />
    </marker>
    <marker
       inkscape:stockid="Arrow1Lstart"
       orient="auto"
       refY="0.0"
       refX="0.0"
       id="Arrow1Lstart"
       style="overflow:visible">
      <path
         id="path3969"
         d="M 0.0,0.0 L 5.0,-5.0 L -12.5,0.0 L 5.0,5.0 L 0.0,0.0 z "
         style="fill-rule:evenodd;stroke:#000000;stroke-width:1.0pt;marker-start:none"
         transform="scale(0.8) translate(12.5,0)" />
    </marker>
  </defs>
  <sodipodi:namedview
     id="base"
     pagecolor="#ffffff"
     bordercolor="#666666"
     borderopacity="1.0"
     inkscape:pageopacity="0.0"
     inkscape:pageshadow="2"
     inkscape:zoom="1.4"
     inkscape:cx="373.65135"
     inkscape:cy="180.16025"
     inkscape:document-units="px"
     inkscape:current-layer="layer1"
     showgrid="false"
     inkscape:window-width="1920"
     inkscape:window-height="1006"
     inkscape:window-x="0"
     inkscape:window-y="25"
     inkscape:window-maximized="1" />
  <metadata
     id="metadata8141">
    <rdf:RDF>
      <cc:Work
         rdf:about="">
        <dc:format>image/svg+xml</dc:format>
        <dc:type
           rdf:resource="http://purl.org/dc/dcmitype/StillImage" />
        <dc:title></dc:title>
      </cc:Work>
    </rdf:RDF>
  </metadata>
  <g
     inkscape:label="Calque 1"
     inkscape:groupmode="layer"
     id="layer1"
     transform="translate(0,-823.36218)">
    <path
       style="fill:none;stroke:#000000;stroke-width:2.5;stroke-linecap:butt;stroke-linejoin:miter;stroke-miterlimit:4;stroke-opacity:1;stroke-dasharray:none"
       d="m 51.538085,960.94338 c 47.982245,20.70813 154.269145,8.95956 217.687875,27.7792 63.41874,18.81962 59.15087,59.76922 154.04826,44.44672 21.21321,-5.0508 132.664,-38.02749 157.07873,-38.38581 24.41472,-0.35833 91.53678,-7.35209 142.4315,28.28431"
       id="path8163"
       inkscape:connector-curvature="0"
       sodipodi:nodetypes="czczc" />
    <path
       style="fill:none;stroke:#000000;stroke-width:2.5;stroke-linecap:butt;stroke-linejoin:miter;stroke-miterlimit:4;stroke-opacity:1;stroke-dasharray:none"
       d="m 10.121831,829.11847 c 59.599,-7.07107 144.789309,19.22698 188.898519,41.92134 44.1092,22.69436 127.11248,4.20154 185.86808,4.54568 58.7556,0.34414 124.09474,42.31491 180.31222,29.7995 56.21749,-12.51541 102.40097,-16.67883 161.11934,2.52538"
       id="path8165"
       inkscape:connector-curvature="0"
       sodipodi:nodetypes="czzzc" />
    <path
       sodipodi:type="arc"
       style="fill:none;stroke:#000000;stroke-width:1.77835488;stroke-miterlimit:4;stroke-dasharray:none"
       id="path8167"
       sodipodi:cx="391.18158"
       sodipodi:cy="465.71609"
       sodipodi:rx="127.53176"
       sodipodi:ry="127.53176"
       d="m 264.76265,448.90529 a 127.53176,127.53176 0 1 1 242.29757,70.06953"
       transform="matrix(0.8434762,0,0,0.8434762,-55.987385,597.08852)"
       sodipodi:start="3.273794"
       sodipodi:end="6.7140003"
       sodipodi:open="true" />
    <path
       sodipodi:type="arc"
       style="fill:#000000;stroke:none"
       id="path8677"
       sodipodi:cx="398.92856"
       sodipodi:cy="438.96933"
       sodipodi:rx="10"
       sodipodi:ry="9.8214283"
       d="m 408.92856,438.96933 a 10,9.8214283 0 1 1 -20,0 10,9.8214283 0 1 1 20,0 z"
       transform="matrix(0.35,0,0,0.35636363,134.53287,833.28336)" />
    <path
       sodipodi:type="arc"
       style="fill:none;stroke:#000000;stroke-width:1.18557024;stroke-miterlimit:4;stroke-dasharray:1.18557019, 2.37114038;stroke-dashoffset:0"
       id="path8167-0"
       sodipodi:cx="391.18158"
       sodipodi:cy="465.71609"
       sodipodi:rx="127.53176"
       sodipodi:ry="127.53176"
       d="M 266.87253,494.20489 A 127.53176,127.53176 0 1 1 517.04318,445.14406"
       transform="matrix(0.8434762,0,0,0.8434762,171.15243,618.92392)"
       sodipodi:start="2.9163059"
       sodipodi:end="6.1211683"
       sodipodi:open="true" />
    <path
       sodipodi:type="arc"
       style="fill:#000000;stroke:none"
       id="path8677-9"
       sodipodi:cx="398.92856"
       sodipodi:cy="438.96933"
       sodipodi:rx="10"
       sodipodi:ry="9.8214283"
       d="m 408.92856,438.96933 a 10,9.8214283 0 1 1 -20,0 10,9.8214283 0 1 1 20,0 z"
       transform="matrix(0.35000001,0,0,0.35636365,361.67267,855.11876)" />
    <path
       sodipodi:type="arc"
       style="fill:none;stroke:#000000;stroke-width:1.26247263;stroke-miterlimit:4;stroke-dasharray:1.26247268, 2.52494536;stroke-dashoffset:0"
       id="path8167-0-0"
       sodipodi:cx="391.18158"
       sodipodi:cy="465.71609"
       sodipodi:rx="127.53176"
       sodipodi:ry="127.53176"
       d="m 263.87905,473.35917 a 127.53176,127.53176 0 1 1 248.09578,33.26341"
       transform="matrix(0.79209654,0,0,0.79209654,331.13667,626.83788)"
       sodipodi:start="3.081626"
       sodipodi:end="6.6097121"
       sodipodi:open="true" />
    <path
       sodipodi:type="arc"
       style="fill:#000000;stroke:none"
       id="path8677-9-0"
       sodipodi:cx="398.92856"
       sodipodi:cy="438.96933"
       sodipodi:rx="10"
       sodipodi:ry="9.8214283"
       d="m 408.92856,438.96933 a 10,9.8214283 0 1 1 -20,0 10,9.8214283 0 1 1 20,0 z"
       transform="matrix(0.35,0,0,0.35636364,501.75959,838.90295)" />
    <path
       sodipodi:type="arc"
       style="fill:none;stroke:#000000;stroke-width:0.79964381;stroke-miterlimit:4;stroke-dasharray:0.79964381, 1.59928761;stroke-dashoffset:0"
       id="path8167-0-0-7"
       sodipodi:cx="391.18158"
       sodipodi:cy="465.71609"
       sodipodi:rx="127.53176"
       sodipodi:ry="127.53176"
       d="m 271.06105,422.87443 a 127.53176,127.53176 0 0 1 244.51077,14.7095"
       transform="matrix(1.2505571,0,0,1.2505571,-100.52617,453.86103)"
       sodipodi:start="3.4841844"
       sodipodi:end="6.0607665"
       sodipodi:open="true" />
    <path
       sodipodi:type="arc"
       style="fill:#000000;stroke:none"
       id="path8677-9-0-5"
       sodipodi:cx="398.92856"
       sodipodi:cy="438.96933"
       sodipodi:rx="10"
       sodipodi:ry="9.8214283"
       d="m 408.92856,438.96933 a 10,9.8214283 0 1 1 -20,0 10,9.8214283 0 1 1 20,0 z"
       transform="matrix(0.35000001,0,0,0.35636365,247.64054,879.63566)" />
    <path
       sodipodi:type="arc"
       style="fill:none;stroke:#000000;stroke-width:0.95947224;stroke-miterlimit:4;stroke-dasharray:0.95947223, 1.91894446;stroke-dashoffset:0"
       id="path8167-0-0-5"
       sodipodi:cx="391.18158"
       sodipodi:cy="465.71609"
       sodipodi:rx="127.53176"
       sodipodi:ry="127.53176"
       d="M 310.67064,366.81039 A 127.53176,127.53176 0 0 1 518.36295,475.16326"
       transform="matrix(1.0422399,0,0,1.0422399,-322.78625,483.9135)"
       sodipodi:start="4.0291593"
       sodipodi:end="6.3573302"
       sodipodi:open="true" />
    <path
       sodipodi:type="arc"
       style="fill:#000000;stroke:none"
       id="path8677-9-0-7"
       sodipodi:cx="398.92856"
       sodipodi:cy="438.96933"
       sodipodi:rx="10"
       sodipodi:ry="9.8214283"
       d="m 408.92856,438.96933 a 10,9.8214283 0 1 1 -20,0 10,9.8214283 0 1 1 20,0 z"
       transform="matrix(0.35000002,0,0,0.35636365,-55.292638,813.45508)" />
    <flowRoot
       xml:space="preserve"
       id="flowRoot8789"
       style="font-size:10px;font-style:normal;font-weight:normal;line-height:125%;letter-spacing:0px;word-spacing:0px;fill:#000000;fill-opacity:1;stroke:none;font-family:Sans"
       transform="translate(24.91878,375.51062)"><flowRegion
         id="flowRegion8791"><rect
           id="rect8793"
           width="33.836285"
           height="32.536453"
           x="227.85715"
           y="616.64789" /></flowRegion><flowPara
         id="flowPara8795"
         style="font-size:20px">A<flowSpan
   style="font-size:65.00091553%;baseline-shift:sub"
   id="flowSpan8847">1</flowSpan></flowPara></flowRoot>    <flowRoot
       xml:space="preserve"
       id="flowRoot8789-9"
       style="font-size:10px;font-style:normal;font-weight:normal;line-height:125%;letter-spacing:0px;word-spacing:0px;fill:#000000;fill-opacity:1;stroke:none;font-family:Sans"
       transform="translate(375.47177,246.61108)"><flowRegion
         id="flowRegion8791-1"><rect
           id="rect8793-0"
           width="139.39722"
           height="33.041519"
           x="227.85715"
           y="616.64789" /></flowRegion><flowPara
         id="flowPara8795-0"
         style="font-size:20px">Σ<flowSpan
   style="font-size:65.00091553%;baseline-shift:sub"
   id="flowSpan8841">2</flowSpan>, t<flowSpan
   style="font-size:65.00091553%;baseline-shift:sub"
   id="flowSpan8843">2</flowSpan>=t<flowSpan
   style="font-size:65.00091553%;baseline-shift:sub"
   id="flowSpan8845">1</flowSpan>+dt</flowPara></flowRoot>    <flowRoot
       xml:space="preserve"
       id="flowRoot8789-4"
       style="font-size:10px;font-style:normal;font-weight:normal;line-height:125%;letter-spacing:0px;word-spacing:0px;fill:#000000;fill-opacity:1;stroke:none;font-family:Sans"
       transform="translate(438.58399,407.5779)"><flowRegion
         id="flowRegion8791-3"><rect
           id="rect8793-3"
           width="75"
           height="96.428574"
           x="227.85715"
           y="616.64789" /></flowRegion><flowPara
         id="flowPara8795-1"
         style="font-size:20px">Σ<flowSpan
   style="font-size:65.00091553%;baseline-shift:sub"
   id="flowSpan8837">1</flowSpan>, t<flowSpan
   style="font-size:65.00091553%;baseline-shift:sub"
   id="flowSpan8839">1</flowSpan></flowPara></flowRoot>    <flowRoot
       xml:space="preserve"
       id="flowRoot8876"
       style="font-size:10px;font-style:normal;font-weight:normal;line-height:125%;letter-spacing:0px;word-spacing:0px;fill:#000000;fill-opacity:1;stroke:none;font-family:Sans"
       transform="translate(4,0)"><flowRegion
         id="flowRegion8878"><rect
           id="rect8880"
           width="1098.0358"
           height="348.50262"
           x="-245.46707"
           y="389.70212" /></flowRegion><flowPara
         id="flowPara8882"></flowPara></flowRoot>    <path
       style="fill:none;stroke:#000000;stroke-width:1px;stroke-linecap:butt;stroke-linejoin:miter;stroke-opacity:1;marker-start:url(#Arrow1Lstart);marker-end:url(#Arrow1Lend)"
       d="M 276.65552,164.22397 343.3256,87.704913"
       id="path14309"
       inkscape:connector-curvature="0"
       transform="translate(0,823.36218)"
       sodipodi:nodetypes="cc" />
    <flowRoot
       xml:space="preserve"
       id="flowRoot8789-2"
       style="font-size:10px;font-style:normal;font-weight:normal;line-height:125%;letter-spacing:0px;word-spacing:0px;fill:#000000;fill-opacity:1;stroke:none;font-family:Sans"
       transform="translate(83.945156,322.06604)"><flowRegion
         id="flowRegion8791-36"><rect
           id="rect8793-5"
           width="33.836285"
           height="32.536453"
           x="227.85715"
           y="616.64789" /></flowRegion><flowPara
         id="flowPara8795-2"
         style="font-size:20px">dt</flowPara></flowRoot>  </g>
</svg>
