<?xml version="1.0" encoding="UTF-8" standalone="no"?>
<!-- Created with Inkscape (http://www.inkscape.org/) -->

<svg
   xmlns:dc="http://purl.org/dc/elements/1.1/"
   xmlns:cc="http://creativecommons.org/ns#"
   xmlns:rdf="http://www.w3.org/1999/02/22-rdf-syntax-ns#"
   xmlns:svg="http://www.w3.org/2000/svg"
   xmlns="http://www.w3.org/2000/svg"
   xmlns:sodipodi="http://sodipodi.sourceforge.net/DTD/sodipodi-0.dtd"
   xmlns:inkscape="http://www.inkscape.org/namespaces/inkscape"
   width="758"
   height="400"
   id="svg6196"
   version="1.1"
   inkscape:version="0.48.0 r"
   sodipodi:docname="Nouveau document 18">
  <defs
     id="defs6198" />
  <sodipodi:namedview
     id="base"
     pagecolor="#ffffff"
     bordercolor="#666666"
     borderopacity="1.0"
     inkscape:pageopacity="0.0"
     inkscape:pageshadow="2"
     inkscape:zoom="0.7"
     inkscape:cx="559.10874"
     inkscape:cy="587.05452"
     inkscape:document-units="px"
     inkscape:current-layer="layer1"
     showgrid="false"
     inkscape:window-width="1920"
     inkscape:window-height="1006"
     inkscape:window-x="0"
     inkscape:window-y="25"
     inkscape:window-maximized="1" />
  <metadata
     id="metadata6201">
    <rdf:RDF>
      <cc:Work
         rdf:about="">
        <dc:format>image/svg+xml</dc:format>
        <dc:type
           rdf:resource="http://purl.org/dc/dcmitype/StillImage" />
        <dc:title></dc:title>
      </cc:Work>
    </rdf:RDF>
  </metadata>
  <g
     inkscape:label="Calque 1"
     inkscape:groupmode="layer"
     id="layer1"
     transform="translate(0,-652.36218)">
    <g
       transform="translate(-19.543045,1074.6525)"
       id="g5987">
      <g
         id="g4662">
        <g
           transform="translate(904.21229,120.33972)"
           id="g4666">
          <path
             sodipodi:nodetypes="scccsssscsssssssscssss"
             inkscape:connector-curvature="0"
             id="path3584-5-2"
             d="m -833.66379,-457.54559 c 34.45784,0.24642 432.73802,10.89837 432.73802,10.89837 l 138.59293,-8.80887 58.21197,8.00139 c 0,0 43.0087,-0.53803 51.75213,-0.51385 7.77701,0.0215 14.2826,4.32907 14.38782,17.76456 0.21193,27.06064 -0.81584,142.47215 -1.24793,175.5902 -0.095,7.27737 -10.83153,20.21685 -19.45293,20.11359 -83.31427,-0.99784 -261.62351,-5.72576 -261.62351,-5.72576 0,0 -84.47071,0.87115 -122.1497,1.46814 -6.33145,0.10032 -11.73892,2.09828 -17.83796,6.53325 -5.24581,3.81452 -7.78118,8.88228 -11.89199,13.06649 -4.1108,4.18421 -20.70084,14.60805 -26.20639,16.59005 -4.42035,1.59132 -13.94738,5.50554 -28.62884,6.0928 -14.68145,0.58726 -19.37952,1.17451 -31.12468,1.17451 -11.74516,0 -22.75626,0.14682 -35.08868,-1.61495 -12.33242,-1.76178 -26.42662,-6.45984 -32.2992,-7.63436 -5.87258,-1.17452 -23.49033,-5.87258 -23.49033,-5.87258 0,0 -49.44228,0.21774 -79.20198,0.24986 -10.15087,0.011 -19.41412,-13.33952 -19.37952,-23.49033 0.2137,-62.69807 -0.35008,-141.18316 -1.03585,-206.0897 -0.0966,-9.13942 7.7578,-17.84443 14.97662,-17.79281 z"
             style="fill:#80e5ff;stroke:#000000;stroke-width:2;stroke-linecap:butt;stroke-linejoin:miter;stroke-miterlimit:4;stroke-opacity:1;stroke-dasharray:none" />
          <path
             sodipodi:nodetypes="scccsssscsssscssss"
             inkscape:connector-curvature="0"
             id="path4411-9-0"
             d="m -747.40809,-376.17623 c 30.3269,-1.65967 345.89506,-14.68146 345.89506,-14.68146 l 65.77292,5.87258 79.86711,-0.58726 c 0,0 37.704,-5.18148 50.94465,-7.1205 7.52973,-1.10269 16.2543,7.6943 16.36981,15.12189 0.31215,20.07085 1.66325,68.79877 2.05541,79.79371 0.35375,9.91784 -9.38664,17.88529 -17.83797,18.35182 -18.80248,1.03795 -215.81738,9.1025 -215.81738,9.1025 0,0 -82.64426,0.92917 -122.29651,0.44045 -6.37276,-0.0786 -13.38035,-0.66638 -18.64545,-4.25762 -8.26371,-5.63655 -13.68566,-14.99046 -22.02217,-20.70085 -10.56053,-7.23381 -29.03492,-15.43409 -33.32691,-15.70917 -12.71745,-0.81507 -44.50961,-0.20961 -65.25906,10e-6 0,0 -49.13337,10.82263 -68.7092,15.12189 -7.25456,1.59325 -16.30278,-7.26815 -16.223,-16.44323 0.10978,-12.6259 -0.28062,-37.28251 0.22021,-49.69671 0.40125,-9.94594 8.40533,-14.02756 19.01248,-14.60805 z"
             style="fill:#ffffff;stroke:#000000;stroke-width:2;stroke-linecap:butt;stroke-linejoin:miter;stroke-miterlimit:4;stroke-opacity:1;stroke-dasharray:none" />
        </g>
      </g>
      <rect
         y="-157.22054"
         x="413.40237"
         height="51.898941"
         width="19.012484"
         id="rect3533-2"
         style="fill:#ffffff;stroke:#000000" />
      <rect
         y="-190.13252"
         x="217.88142"
         height="114.41431"
         width="8.1806555"
         id="rect4574-2"
         style="fill:#ffffff;stroke:#000000;stroke-width:0.94280958;stroke-miterlimit:4;stroke-opacity:1;stroke-dasharray:none" />
      <rect
         y="-159.89992"
         x="481.26743"
         height="50.751423"
         width="19.012484"
         id="rect3533-7-3"
         style="fill:#ffffff;stroke:#000000;stroke-width:0.9888829" />
      <path
         inkscape:connector-curvature="0"
         id="path4421-6"
         d="m 56.26696,-233.57205 80.76695,0.41525"
         style="fill:none;stroke:#000000;stroke-width:1.5;stroke-linecap:butt;stroke-linejoin:miter;stroke-miterlimit:4;stroke-opacity:1;stroke-dasharray:none" />
      <path
         inkscape:connector-curvature="0"
         id="path4423-6"
         d="m 55.851706,-192.46188 81.389834,-0.41525"
         style="fill:none;stroke:#000000;stroke-width:1.5;stroke-linecap:butt;stroke-linejoin:miter;stroke-miterlimit:4;stroke-opacity:1;stroke-dasharray:none" />
      <path
         inkscape:connector-curvature="0"
         id="path4435-3"
         d="m 341.44281,-155.66024 18.99788,0 0.20763,45.09858 -18.79026,0.10135"
         style="fill:none;stroke:#000000;stroke-width:0.98803973px;stroke-linecap:butt;stroke-linejoin:miter;stroke-opacity:1" />
      <rect
         y="-215.81995"
         x="54.917381"
         height="6.9555087"
         width="85.023308"
         id="rect4462-5"
         style="fill:#ffffff;stroke:#000000;stroke-width:2.5999999;stroke-miterlimit:4;stroke-opacity:1;stroke-dasharray:none" />
      <rect
         y="-219.24579"
         x="75.887718"
         height="14.430085"
         width="5.3983049"
         id="rect4464-97"
         style="fill:#ffffff;stroke:#000000;stroke-width:2.5999999;stroke-miterlimit:4;stroke-opacity:1;stroke-dasharray:none" />
      <rect
         y="-219.09007"
         x="96.235176"
         height="14.430085"
         width="5.3983049"
         id="rect4464-9-3"
         style="fill:#ffffff;stroke:#000000;stroke-width:2.5999999;stroke-miterlimit:4;stroke-opacity:1;stroke-dasharray:none" />
      <rect
         y="-218.98625"
         x="118.97036"
         height="14.430085"
         width="5.3983049"
         id="rect4464-0-4"
         style="fill:#ffffff;stroke:#000000;stroke-width:2.5999999;stroke-miterlimit:4;stroke-opacity:1;stroke-dasharray:none" />
      <path
         sodipodi:nodetypes="cc"
         inkscape:connector-curvature="0"
         id="path4495-4"
         d="m 701.19458,-326.30796 0.35228,52.92404"
         style="fill:#ff0000;stroke:#000000;stroke-width:1.70000005;stroke-linecap:butt;stroke-linejoin:miter;stroke-miterlimit:4;stroke-opacity:1;stroke-dasharray:none" />
      <path
         inkscape:connector-curvature="0"
         id="path4497-5"
         d="m 705.72459,-272.19069 50.45339,-55.22882"
         style="fill:none;stroke:#000000;stroke-width:2.4000001;stroke-linecap:butt;stroke-linejoin:miter;stroke-miterlimit:4;stroke-opacity:1;stroke-dasharray:none" />
      <path
         sodipodi:nodetypes="cc"
         inkscape:connector-curvature="0"
         id="path4499-8"
         d="m 715.6907,-258.38349 50.86864,-52.8411"
         style="fill:none;stroke:#000000;stroke-width:2.4000001;stroke-linecap:butt;stroke-linejoin:miter;stroke-miterlimit:4;stroke-opacity:1;stroke-dasharray:none" />
      <path
         sodipodi:nodetypes="czc"
         inkscape:connector-curvature="0"
         id="path4501-07"
         d="m 746.83476,-317.19387 c 0,0 6.08006,-0.53604 9.26536,2.02436 3.1853,2.56041 3.65943,10.82256 3.65943,10.82256"
         style="fill:none;stroke:#000000;stroke-width:2.4000001;stroke-linecap:butt;stroke-linejoin:miter;stroke-miterlimit:4;stroke-opacity:1;stroke-dasharray:none" />
      <path
         sodipodi:nodetypes="czc"
         inkscape:connector-curvature="0"
         id="path4501-5-6"
         d="m 738.19229,-308.48912 c 0,0 6.08006,-0.53604 9.26536,2.02436 3.1853,2.56041 3.65943,11.34163 3.65943,11.34163"
         style="fill:none;stroke:#000000;stroke-width:2.4000001;stroke-linecap:butt;stroke-linejoin:miter;stroke-miterlimit:4;stroke-opacity:1;stroke-dasharray:none" />
      <path
         sodipodi:nodetypes="czc"
         inkscape:connector-curvature="0"
         id="path4501-1-7"
         d="m 729.05669,-298.21158 c 0,0 6.08006,-0.53604 9.26536,2.02436 3.1853,2.56041 3.34799,10.40731 3.34799,10.40731"
         style="fill:none;stroke:#000000;stroke-width:2.4000001;stroke-linecap:butt;stroke-linejoin:miter;stroke-miterlimit:4;stroke-opacity:1;stroke-dasharray:none" />
      <path
         sodipodi:nodetypes="czc"
         inkscape:connector-curvature="0"
         id="path4501-55-6"
         d="m 721.06304,-288.97217 c 0,0 6.08006,-0.53604 9.26536,2.02436 3.1853,2.56041 3.4518,9.78443 3.4518,9.78443"
         style="fill:none;stroke:#000000;stroke-width:2.4000001;stroke-linecap:butt;stroke-linejoin:miter;stroke-miterlimit:4;stroke-opacity:1;stroke-dasharray:none" />
      <path
         sodipodi:nodetypes="czc"
         inkscape:connector-curvature="0"
         id="path4501-0-3"
         d="m 712.3427,-280.14801 c 0,0 6.08006,-0.53604 9.26536,2.02436 3.1853,2.56041 3.34799,9.47299 3.34799,9.47299"
         style="fill:none;stroke:#000000;stroke-width:2.4000001;stroke-linecap:butt;stroke-linejoin:miter;stroke-miterlimit:4;stroke-opacity:1;stroke-dasharray:none" />
      <path
         sodipodi:nodetypes="cscszscscc"
         inkscape:connector-curvature="0"
         id="path4560-2"
         d="m 565.06103,-304.78815 c 8.21919,-5.5275 19.10202,-10.68082 28.01236,-10.83961 12.4154,-0.22125 35.93298,-0.26844 35.93298,-0.26844 0,0 13.89001,-0.33566 19.95217,1.52158 9.0563,2.77454 23.22064,4.60995 23.33808,14.15427 0.11744,9.54432 -15.13535,12.77145 -24.51259,14.91136 -4.74402,1.0826 -18.98529,0.76448 -18.98529,0.76448 0,0 -24.47842,0.44174 -36.94286,0.56728 -11.67083,0.11756 -20.01751,-5.80352 -26.79485,-9.9105 0.1727,-3.6745 0.12267,-7.87098 0,-10.90042 z"
         style="fill:#ffffff;stroke:#000000;stroke-width:2;stroke-linecap:butt;stroke-linejoin:miter;stroke-miterlimit:4;stroke-opacity:1;stroke-dasharray:none" />
      <path
         sodipodi:nodetypes="csccsc"
         inkscape:connector-curvature="0"
         id="path4572-7-1"
         d="m 639.29103,-311.70745 c 0,0 3.98087,-6.11342 4.67164,-9.60651 0.88901,-4.49556 1.16809,-10.07346 -0.854,-13.72131 -2.16514,-0.0304 -5.40662,-10e-4 -7.62,0.0189 -1.41766,3.88927 -1.40036,9.21598 -0.526,13.70241 0.67185,3.44734 4.32836,9.60651 4.32836,9.60651 z"
         style="fill:#000000;stroke:#000000;stroke-width:1px;stroke-linecap:butt;stroke-linejoin:miter;stroke-opacity:1" />
      <path
         sodipodi:nodetypes="cc"
         inkscape:connector-curvature="0"
         id="path4562-1"
         d="m 575.21835,-310.31024 -0.0241,22.08098"
         style="fill:none;stroke:#000000;stroke-width:1px;stroke-linecap:butt;stroke-linejoin:miter;stroke-opacity:1" />
      <rect
         y="-311.17822"
         x="636.60785"
         height="21.004566"
         width="5.9635673"
         id="rect4564-0"
         style="fill:#ffffff;stroke:#000000;stroke-width:1;stroke-miterlimit:4;stroke-opacity:1;stroke-dasharray:none" />
      <path
         sodipodi:nodetypes="csccsc"
         inkscape:connector-curvature="0"
         id="path4572-9"
         d="m 639.33267,-289.115 c 0,0 -3.98087,6.11342 -4.67164,9.60651 -0.88901,4.49556 -1.16809,10.07346 0.854,13.72131 2.16514,0.0304 5.40662,10e-4 7.62,-0.0189 1.41766,-3.88927 1.40036,-9.21598 0.526,-13.70241 -0.67185,-3.44734 -4.32836,-9.60651 -4.32836,-9.60651 z"
         style="fill:#000000;stroke:#000000;stroke-width:1px;stroke-linecap:butt;stroke-linejoin:miter;stroke-opacity:1" />
      <path
         inkscape:connector-curvature="0"
         id="path4576-9"
         d="m 197.03815,-183.32629 c 0.27684,0 0.55367,0 0,0 z"
         style="fill:none;stroke:#000000;stroke-width:1px;stroke-linecap:butt;stroke-linejoin:miter;stroke-opacity:1" />
      <path
         sodipodi:nodetypes="cc"
         inkscape:connector-curvature="0"
         id="path4578-2"
         d="m 197.66103,-80.343242 -0.0676,-104.382468"
         style="fill:none;stroke:#000000;stroke-width:1.5;stroke-linecap:butt;stroke-linejoin:miter;stroke-miterlimit:4;stroke-opacity:1;stroke-dasharray:12, 6;stroke-dashoffset:0" />
      <path
         sodipodi:nodetypes="cc"
         inkscape:connector-curvature="0"
         id="path4578-9-8"
         d="m 233.17264,-76.107572 0.42785,-114.127278"
         style="fill:none;stroke:#000000;stroke-width:1.5;stroke-linecap:butt;stroke-linejoin:miter;stroke-miterlimit:4;stroke-opacity:1;stroke-dasharray:12, 6;stroke-dashoffset:0" />
      <path
         sodipodi:nodetypes="cc"
         inkscape:connector-curvature="0"
         id="path4578-3-7"
         d="M 239.29027,-75.802412 239.27767,-190.9941"
         style="fill:none;stroke:#000000;stroke-width:1.5;stroke-linecap:butt;stroke-linejoin:miter;stroke-miterlimit:4;stroke-opacity:1;stroke-dasharray:9, 3;stroke-dashoffset:0" />
      <path
         sodipodi:nodetypes="cc"
         inkscape:connector-curvature="0"
         id="path4578-7-3"
         d="m 244.50505,-76.123392 0.27843,-114.430898"
         style="fill:none;stroke:#000000;stroke-width:1.5;stroke-linecap:butt;stroke-linejoin:miter;stroke-miterlimit:4;stroke-opacity:1;stroke-dasharray:3, 3;stroke-dashoffset:1.05" />
      <path
         sodipodi:nodetypes="czc"
         inkscape:connector-curvature="0"
         id="path4501-3-0"
         d="m 752.59708,-139.38561 c 0,0 0.6162,5.94713 -1.5772,9.39543 -2.19341,3.4483 -9.66045,4.83369 -9.66045,4.83369"
         style="fill:none;stroke:#000000;stroke-width:2.4000001;stroke-linecap:butt;stroke-linejoin:miter;stroke-miterlimit:4;stroke-opacity:1;stroke-dasharray:none" />
      <path
         sodipodi:nodetypes="czc"
         inkscape:connector-curvature="0"
         id="path4501-3-3-9"
         d="m 742.3567,-149.2258 c 0,0 0.6162,5.94713 -1.5772,9.39543 -2.19341,3.4483 -9.19329,4.72988 -9.19329,4.72988"
         style="fill:none;stroke:#000000;stroke-width:2.4000001;stroke-linecap:butt;stroke-linejoin:miter;stroke-miterlimit:4;stroke-opacity:1;stroke-dasharray:none" />
      <path
         sodipodi:nodetypes="czc"
         inkscape:connector-curvature="0"
         id="path4501-3-32-8"
         d="m 734.57553,-157.59423 c 0,0 0.6162,5.94713 -1.5772,9.39543 -2.19341,3.4483 -9.45282,4.72988 -9.45282,4.72988"
         style="fill:none;stroke:#000000;stroke-width:2.4000001;stroke-linecap:butt;stroke-linejoin:miter;stroke-miterlimit:4;stroke-opacity:1;stroke-dasharray:none" />
      <path
         sodipodi:nodetypes="czc"
         inkscape:connector-curvature="0"
         id="path4501-3-4-6"
         d="m 725.78816,-166.13466 c 0,0 0.66811,5.53188 -1.52529,8.98018 -2.19341,3.4483 -9.45282,4.78179 -9.45282,4.78179"
         style="fill:none;stroke:#000000;stroke-width:2.4000001;stroke-linecap:butt;stroke-linejoin:miter;stroke-miterlimit:4;stroke-opacity:1;stroke-dasharray:none" />
      <path
         inkscape:connector-curvature="0"
         id="path3160-5"
         d="m 717.08832,-174.47125 46.54021,45.87955"
         style="fill:#ff0000;stroke:#000000;stroke-width:2.4000001;stroke-linecap:butt;stroke-linejoin:miter;stroke-miterlimit:4;stroke-opacity:1;stroke-dasharray:none" />
      <path
         sodipodi:nodetypes="cc"
         inkscape:connector-curvature="0"
         id="path3162-1"
         d="m 706.07201,-160.50757 44.41662,44.3217"
         style="fill:#ff0000;stroke:#000000;stroke-width:2.4000001;stroke-linecap:butt;stroke-linejoin:miter;stroke-miterlimit:4;stroke-opacity:1;stroke-dasharray:none" />
      <path
         sodipodi:nodetypes="czc"
         inkscape:connector-curvature="0"
         id="path4501-3-326-34"
         d="m 140.31239,-163.78289 c 0,0 -5.9287,-0.77362 -8.77738,-3.70394 -2.84867,-2.93034 -3.24976,-8.97819 -3.24976,-8.97819"
         style="fill:none;stroke:#000000;stroke-width:2.4000001;stroke-linecap:butt;stroke-linejoin:miter;stroke-miterlimit:4;stroke-opacity:1;stroke-dasharray:none" />
      <path
         sodipodi:nodetypes="czc"
         inkscape:connector-curvature="0"
         id="path4501-3-326-3-8"
         d="m 131.8063,-154.25621 c 0,0 -5.9287,-0.77362 -8.77738,-3.70394 -2.84867,-2.93034 -3.24976,-8.97819 -3.24976,-8.97819"
         style="fill:none;stroke:#000000;stroke-width:2.4000001;stroke-linecap:butt;stroke-linejoin:miter;stroke-miterlimit:4;stroke-opacity:1;stroke-dasharray:none" />
      <path
         sodipodi:nodetypes="czc"
         inkscape:connector-curvature="0"
         id="path4501-3-326-0-7"
         d="m 123.58469,-146.108 c 0,0 -5.9287,-0.77362 -8.77738,-3.70394 -2.84867,-2.93034 -3.24976,-8.97819 -3.24976,-8.97819"
         style="fill:none;stroke:#000000;stroke-width:2.4000001;stroke-linecap:butt;stroke-linejoin:miter;stroke-miterlimit:4;stroke-opacity:1;stroke-dasharray:none" />
      <path
         sodipodi:nodetypes="czc"
         inkscape:connector-curvature="0"
         id="path4501-3-326-8-1"
         d="m 114.18855,-135.75758 c 0,0 -5.9287,-0.77362 -8.77738,-3.70394 -2.84867,-2.93034 -3.24976,-8.97819 -3.24976,-8.97819"
         style="fill:none;stroke:#000000;stroke-width:2.4000001;stroke-linecap:butt;stroke-linejoin:miter;stroke-miterlimit:4;stroke-opacity:1;stroke-dasharray:none" />
      <path
         sodipodi:nodetypes="czc"
         inkscape:connector-curvature="0"
         id="path4501-3-326-7-2"
         d="m 105.45309,-126.65507 c 0,0 -5.928705,-0.77362 -8.777385,-3.70394 -2.84867,-2.93034 -3.24976,-8.97819 -3.24976,-8.97819"
         style="fill:none;stroke:#000000;stroke-width:2.4000001;stroke-linecap:butt;stroke-linejoin:miter;stroke-miterlimit:4;stroke-opacity:1;stroke-dasharray:none" />
      <path
         sodipodi:nodetypes="czc"
         inkscape:connector-curvature="0"
         id="path4501-3-326-05-2"
         d="m 97.321161,-117.65638 c 0,0 -5.357725,-0.66981 -8.206405,-3.60013 -2.84867,-2.93034 -3.716921,-10.12014 -3.716921,-10.12014"
         style="fill:none;stroke:#000000;stroke-width:2.4000001;stroke-linecap:butt;stroke-linejoin:miter;stroke-miterlimit:4;stroke-opacity:1;stroke-dasharray:none" />
      <path
         sodipodi:nodetypes="czc"
         inkscape:connector-curvature="0"
         id="path4501-3-326-9-1"
         d="m 88.349191,-108.30326 c 0,0 -5.9287,-0.77362 -8.77738,-3.70394 -2.84867,-2.93034 -3.561201,-9.75679 -3.561201,-9.75679"
         style="fill:none;stroke:#000000;stroke-width:2.4000001;stroke-linecap:butt;stroke-linejoin:miter;stroke-miterlimit:4;stroke-opacity:1;stroke-dasharray:none" />
      <path
         sodipodi:nodetypes="czc"
         inkscape:connector-curvature="0"
         id="path4501-3-326-38-5"
         d="m 79.613726,-100.37527 c 0,0 -5.9287,-0.77362 -8.77738,-3.70394 -2.84867,-2.93034 -3.24976,-8.97819 -3.24976,-8.97819"
         style="fill:none;stroke:#000000;stroke-width:2.4000001;stroke-linecap:butt;stroke-linejoin:miter;stroke-miterlimit:4;stroke-opacity:1;stroke-dasharray:none" />
      <path
         sodipodi:nodetypes="cc"
         inkscape:connector-curvature="0"
         id="path3242-2"
         d="m 58.331443,-103.78004 79.850827,-82.35558"
         style="fill:none;stroke:#000000;stroke-width:2.4000001;stroke-linecap:butt;stroke-linejoin:miter;stroke-miterlimit:4;stroke-opacity:1;stroke-dasharray:none" />
      <path
         sodipodi:nodetypes="cc"
         inkscape:connector-curvature="0"
         id="path3244-7"
         d="M 151.84493,-175.02962 71.473505,-91.195462"
         style="fill:none;stroke:#000000;stroke-width:2.4000001;stroke-linecap:butt;stroke-linejoin:miter;stroke-miterlimit:4;stroke-opacity:1;stroke-dasharray:none" />
      <path
         inkscape:connector-curvature="0"
         id="path3246-4"
         d="m 73.453341,-337.06836 76.637199,81.77571"
         style="fill:none;stroke:#000000;stroke-width:2.4000001;stroke-linecap:butt;stroke-linejoin:miter;stroke-miterlimit:4;stroke-opacity:1;stroke-dasharray:none" />
      <path
         sodipodi:nodetypes="cc"
         inkscape:connector-curvature="0"
         id="path3248-8"
         d="M 137.58611,-242.01853 57.440122,-326.20714"
         style="fill:none;stroke:#000000;stroke-width:2.4000001;stroke-linecap:butt;stroke-linejoin:miter;stroke-miterlimit:4;stroke-opacity:1;stroke-dasharray:none" />
      <path
         sodipodi:nodetypes="czc"
         inkscape:connector-curvature="0"
         id="path4501-3-326-2-3"
         d="m 76.365569,-306.66648 c 0,0 0.778393,-6.73501 3.583954,-9.70663 2.80558,-2.97162 8.830688,-3.6315 8.830688,-3.6315"
         style="fill:none;stroke:#000000;stroke-width:2.4000001;stroke-linecap:butt;stroke-linejoin:miter;stroke-miterlimit:4;stroke-opacity:1;stroke-dasharray:none" />
      <path
         sodipodi:nodetypes="czc"
         inkscape:connector-curvature="0"
         id="path4501-3-326-2-0-7"
         d="m 68.374927,-315.10831 c 0,0 0.804346,-6.73501 3.609907,-9.70663 2.80558,-2.97162 8.830688,-3.6315 8.830688,-3.6315"
         style="fill:none;stroke:#000000;stroke-width:2.4000001;stroke-linecap:butt;stroke-linejoin:miter;stroke-miterlimit:4;stroke-opacity:1;stroke-dasharray:none" />
      <path
         sodipodi:nodetypes="czc"
         inkscape:connector-curvature="0"
         id="path4501-3-326-2-9-9"
         d="m 85.304209,-297.14503 c 0,0 0.648626,-6.78692 3.454187,-9.75854 2.80558,-2.97162 8.830688,-3.6315 8.830688,-3.6315"
         style="fill:none;stroke:#000000;stroke-width:2.4000001;stroke-linecap:butt;stroke-linejoin:miter;stroke-miterlimit:4;stroke-opacity:1;stroke-dasharray:none" />
      <path
         sodipodi:nodetypes="czc"
         inkscape:connector-curvature="0"
         id="path4501-3-326-2-7-5"
         d="m 94.078223,-287.95055 c 0,0 0.8303,-7.53957 3.635861,-10.51119 2.805576,-2.97162 8.830686,-3.6315 8.830686,-3.6315"
         style="fill:none;stroke:#000000;stroke-width:2.4000001;stroke-linecap:butt;stroke-linejoin:miter;stroke-miterlimit:4;stroke-opacity:1;stroke-dasharray:none" />
      <path
         sodipodi:nodetypes="czc"
         inkscape:connector-curvature="0"
         id="path4501-3-326-2-5-6"
         d="m 102.76178,-278.74946 c 0,0 0.88222,-7.12431 3.68778,-10.09593 2.80558,-2.97162 8.83068,-3.6315 8.83068,-3.6315"
         style="fill:none;stroke:#000000;stroke-width:2.4000001;stroke-linecap:butt;stroke-linejoin:miter;stroke-miterlimit:4;stroke-opacity:1;stroke-dasharray:none" />
      <path
         sodipodi:nodetypes="czc"
         inkscape:connector-curvature="0"
         id="path4501-3-326-2-8-4"
         d="m 111.85982,-268.97368 c 0,0 0.96007,-6.91669 3.76563,-9.88831 2.80558,-2.97162 8.83069,-3.6315 8.83069,-3.6315"
         style="fill:none;stroke:#000000;stroke-width:2.4000001;stroke-linecap:butt;stroke-linejoin:miter;stroke-miterlimit:4;stroke-opacity:1;stroke-dasharray:none" />
      <path
         sodipodi:nodetypes="czc"
         inkscape:connector-curvature="0"
         id="path4501-3-326-2-6-4"
         d="m 119.82268,-260.27308 c 0,0 0.77839,-6.73501 3.58395,-9.70663 2.80558,-2.97162 8.83069,-3.6315 8.83069,-3.6315"
         style="fill:none;stroke:#000000;stroke-width:2.4000001;stroke-linecap:butt;stroke-linejoin:miter;stroke-miterlimit:4;stroke-opacity:1;stroke-dasharray:none" />
      <path
         sodipodi:nodetypes="czc"
         inkscape:connector-curvature="0"
         id="path4501-3-326-2-81-0"
         d="m 128.77392,-251.45976 c 0,0 0.85625,-6.81287 3.66181,-9.78449 2.80558,-2.97162 8.83069,-3.6315 8.83069,-3.6315"
         style="fill:none;stroke:#000000;stroke-width:2.4000001;stroke-linecap:butt;stroke-linejoin:miter;stroke-miterlimit:4;stroke-opacity:1;stroke-dasharray:none" />
      <path
         sodipodi:nodetypes="cc"
         inkscape:connector-curvature="0"
         id="path4566-3"
         d="m 632.82229,-287.89388 12.97669,0"
         style="fill:none;stroke:#000000;stroke-width:1px;stroke-linecap:butt;stroke-linejoin:miter;stroke-opacity:1" />
      <path
         sodipodi:nodetypes="cc"
         inkscape:connector-curvature="0"
         id="path4568-3"
         d="m 632.45057,-312.85717 14.11864,0"
         style="fill:none;stroke:#000000;stroke-width:1px;stroke-linecap:butt;stroke-linejoin:miter;stroke-opacity:1" />
      <path
         sodipodi:nodetypes="ccccc"
         inkscape:connector-curvature="0"
         id="path4591"
         d="m 481.38349,-149.5551 27.22511,-0.7267 0.38929,29.66473 -27.43272,-0.18172 z"
         style="fill:#80e5ff;stroke:none" />
      <rect
         y="-149.37975"
         x="361.03745"
         height="29.536497"
         width="119.71091"
         id="rect4571"
         style="fill:#d0d0d0;fill-opacity:1;stroke:#000000;stroke-width:0.49508363;stroke-miterlimit:4;stroke-dasharray:none;stroke-dashoffset:0" />
      <path
         sodipodi:nodetypes="scccsssscsssscssss"
         inkscape:connector-curvature="0"
         id="path4411-9"
         d="m 156.69719,-256.17353 c 30.3269,-1.65967 345.89506,-14.68146 345.89506,-14.68146 l 65.77292,5.87258 79.86711,-0.58726 c 0,0 37.704,-5.18148 50.94465,-7.1205 7.52973,-1.10269 16.2543,7.6943 16.36981,15.12189 0.31215,20.07085 1.66325,68.79877 2.05541,79.79371 0.35375,9.91784 -9.38664,17.88529 -17.83797,18.35182 -18.80248,1.03795 -215.81738,9.1025 -215.81738,9.1025 0,0 -82.64426,0.92917 -122.29651,0.44045 -6.37276,-0.0786 -13.38035,-0.66638 -18.64545,-4.25762 -8.26371,-5.63655 -13.68566,-14.99046 -22.02217,-20.70085 -10.56053,-7.23381 -29.03492,-15.43409 -33.32691,-15.70917 -12.71745,-0.81507 -44.50961,-0.20961 -65.25906,1e-5 0,0 -49.13337,10.82263 -68.70921,15.12189 -7.25456,1.59325 -16.30278,-7.26815 -16.223,-16.44323 0.10978,-12.6259 -0.28062,-37.28251 0.22021,-49.69671 0.40125,-9.94594 8.40533,-14.02756 19.01249,-14.60805 z"
         style="fill:none;stroke:#000000;stroke-width:2.5999999;stroke-linecap:butt;stroke-linejoin:miter;stroke-miterlimit:4;stroke-opacity:1;stroke-dasharray:none" />
      <path
         sodipodi:nodetypes="scccsssscsssssssscssss"
         inkscape:connector-curvature="0"
         id="path3584-5"
         d="m 70.44148,-337.24286 c 34.45784,0.24642 432.73803,10.89837 432.73803,10.89837 l 138.59293,-8.80887 58.21197,8.00139 c 0,0 43.0087,-0.53803 51.75213,-0.51385 7.77701,0.0215 14.2826,4.32907 14.38782,17.76456 0.21193,27.06064 -0.81584,142.47215 -1.24793,175.5902 -0.095,7.27737 -10.83153,20.21685 -19.45293,20.11359 -83.31427,-0.99784 -261.62351,-5.72576 -261.62351,-5.72576 0,0 -84.47071,0.87115 -122.1497,1.46814 -6.33145,0.10032 -11.73892,2.09828 -17.83796,6.53325 -5.24581,3.81452 -7.78118,8.88228 -11.89199,13.066483 -4.1108,4.18421 -20.70084,14.60805 -26.20639,16.59005 -4.42035,1.59132 -13.94738,5.50554 -28.62884,6.0928 -14.68145,0.58726 -19.37952,1.174511 -31.12468,1.174511 -11.74516,0 -22.75626,0.14682 -35.08868,-1.614951 -12.33242,-1.76178 -26.42662,-6.45984 -32.2992,-7.63436 -5.87258,-1.17452 -23.49033,-5.87258 -23.49033,-5.87258 0,0 -49.44229,0.21774 -79.201988,0.24986 -10.150864,0.011 -19.414117,-13.339513 -19.379519,-23.490323 0.213698,-62.69807 -0.35008,-141.18316 -1.035844,-206.0897 -0.09656,-9.13942 7.757791,-17.84443 14.976611,-17.79281 z"
         style="fill:none;stroke:#000000;stroke-width:2.5999999;stroke-linecap:butt;stroke-linejoin:miter;stroke-miterlimit:4;stroke-opacity:1;stroke-dasharray:none" />
      <path
         sodipodi:nodetypes="cccccccc"
         inkscape:connector-curvature="0"
         id="path4612-5-2"
         d="m 294.31603,-129.67451 18,-0.31144 0,7.26695 21.98305,-10.27754 -21.98305,-11.21187 0,6.74789 -18,0.31144 z"
         style="fill:#000080;stroke:#000000;stroke-width:1px;stroke-linecap:butt;stroke-linejoin:miter;stroke-opacity:1" />
      <path
         sodipodi:nodetypes="cccccccc"
         inkscape:connector-curvature="0"
         id="path4612-9"
         d="m 330.66103,-300.1279 -18,0.31144 0,-7.26695 -21.98305,10.27754 21.98305,11.21187 0,-6.74789 18,-0.31144 z"
         style="fill:#000080;stroke:#000000;stroke-width:1px;stroke-linecap:butt;stroke-linejoin:miter;stroke-opacity:1" />
      <path
         sodipodi:nodetypes="ccc"
         inkscape:connector-curvature="0"
         id="path4670-3"
         d="M 386.82205,-129.33263 387.65256,-72 484.628,-72"
         style="fill:none;stroke:#000000;stroke-width:1px;stroke-linecap:butt;stroke-linejoin:miter;stroke-opacity:1" />
      <path
         sodipodi:nodetypes="ccc"
         inkscape:connector-curvature="0"
         id="path4672-9"
         d="M 265.15256,-105.45551 317.88984,-29 168.396,-29"
         style="fill:none;stroke:#000000;stroke-width:1px;stroke-linecap:butt;stroke-linejoin:miter;stroke-opacity:1" />
      <path
         sodipodi:nodetypes="ccc"
         inkscape:connector-curvature="0"
         id="path4674-5"
         d="M 224.25001,-323.46399 223.83476,-356 l 104.64407,0"
         style="fill:none;stroke:#000000;stroke-width:1px;stroke-linecap:butt;stroke-linejoin:miter;stroke-opacity:1" />
      <path
         sodipodi:nodetypes="cc"
         inkscape:connector-curvature="0"
         id="path4676-2"
         d="m 241.27544,-213 -101.7373,0"
         style="fill:none;stroke:#000000;stroke-width:1px;stroke-linecap:butt;stroke-linejoin:miter;stroke-opacity:1" />
      <path
         sodipodi:nodetypes="ccc"
         inkscape:connector-curvature="0"
         id="path4678-0"
         d="M 588.01273,-306.02332 546.51656,-352 671.723,-352"
         style="fill:none;stroke:#000000;stroke-width:1px;stroke-linecap:butt;stroke-linejoin:miter;stroke-opacity:1" />
      <path
         sodipodi:nodetypes="ccc"
         inkscape:connector-curvature="0"
         id="path4680-9"
         d="m 668.65985,-128.44131 7.38678,44.164832 90.52543,0.552956"
         style="fill:none;stroke:#000000;stroke-width:1px;stroke-linecap:butt;stroke-linejoin:miter;stroke-opacity:1" />
      <path
         sodipodi:nodetypes="cc"
         inkscape:connector-curvature="0"
         id="path4682-7"
         d="m 99.328,-392 641.588,0"
         style="fill:#ff0000;stroke:#ff0000;stroke-width:1.5;stroke-linecap:butt;stroke-linejoin:miter;stroke-miterlimit:4;stroke-opacity:1;stroke-dasharray:none;marker-start:none;marker-end:none" />
      <path
         sodipodi:nodetypes="cc"
         inkscape:connector-curvature="0"
         id="path4684-1"
         d="m 40,-292.596 0,156.931"
         style="fill:none;stroke:#ff0000;stroke-width:1.5;stroke-linecap:butt;stroke-linejoin:miter;stroke-miterlimit:4;stroke-opacity:1;stroke-dasharray:none;marker-start:none;marker-end:none" />
      <text
         sodipodi:linespacing="125%"
         id="text3149"
         y="-358.63562"
         x="235.44916"
         style="font-size:40px;font-style:normal;font-weight:normal;line-height:125%;letter-spacing:0px;word-spacing:0px;fill:#000080;fill-opacity:1;stroke:none;font-family:Sans"
         xml:space="preserve"><tspan
           style="font-size:14px;fill:#000080;fill-opacity:1"
           id="tspan3153"
           y="-358.63562"
           x="235.44916"
           sodipodi:role="line">2nd diffuser</tspan></text>
      <text
         sodipodi:linespacing="125%"
         id="text3149-5"
         y="-215.41324"
         x="146.50398"
         style="font-size:40px;font-style:normal;font-weight:normal;line-height:125%;letter-spacing:0px;word-spacing:0px;fill:#000080;fill-opacity:1;stroke:none;font-family:Sans"
         xml:space="preserve"><tspan
           style="font-size:14px;fill:#000080;fill-opacity:1"
           id="tspan3153-1"
           y="-215.41324"
           x="146.50398"
           sodipodi:role="line">water cooler</tspan></text>
      <text
         transform="matrix(0,-1,1,0,0,0)"
         sodipodi:linespacing="125%"
         id="text3149-2"
         y="33.145947"
         x="197.74644"
         style="font-size:40px;font-style:normal;font-weight:normal;line-height:125%;letter-spacing:0px;word-spacing:0px;fill:#ff0000;fill-opacity:1;stroke:none;font-family:Sans"
         xml:space="preserve"><tspan
           style="font-size:14px;fill:#ff0000;fill-opacity:1"
           id="tspan3153-9"
           y="33.145947"
           x="197.74644"
           sodipodi:role="line">8 m</tspan></text>
      <text
         sodipodi:linespacing="125%"
         id="text3149-57"
         y="-395.20956"
         x="391.8934"
         style="font-size:40px;font-style:normal;font-weight:normal;line-height:125%;letter-spacing:0px;word-spacing:0px;fill:#000080;fill-opacity:1;stroke:none;font-family:Sans"
         xml:space="preserve"><tspan
           id="tspan3248"
           style="font-size:14px;fill:#ff0000;fill-opacity:1"
           y="-395.20956"
           x="391.8934"
           sodipodi:role="line">32 m</tspan></text>
      <text
         sodipodi:linespacing="125%"
         id="text3149-1"
         y="-31.255352"
         x="177.60567"
         style="font-size:40px;font-style:normal;font-weight:normal;line-height:125%;letter-spacing:0px;word-spacing:0px;fill:#000080;fill-opacity:1;stroke:none;font-family:Sans"
         xml:space="preserve"><tspan
           style="font-size:14px;fill:#000080;fill-opacity:1"
           id="tspan3153-8"
           y="-31.255352"
           x="177.60567"
           sodipodi:role="line">settling chamber</tspan></text>
      <text
         sodipodi:linespacing="125%"
         id="text3149-0"
         y="-73.535011"
         x="395.77518"
         style="font-size:40px;font-style:normal;font-weight:normal;line-height:125%;letter-spacing:0px;word-spacing:0px;fill:#000080;fill-opacity:1;stroke:none;font-family:Sans"
         xml:space="preserve"><tspan
           id="tspan3232"
           style="font-size:14px;fill:#000080;fill-opacity:1"
           y="-73.535011"
           x="395.77518"
           sodipodi:role="line">test section</tspan></text>
      <text
         sodipodi:linespacing="125%"
         id="text3149-7"
         y="-86.407898"
         x="680.41077"
         style="font-size:40px;font-style:normal;font-weight:normal;line-height:125%;letter-spacing:0px;word-spacing:0px;fill:#000080;fill-opacity:1;stroke:none;font-family:Sans"
         xml:space="preserve"><tspan
           style="font-size:14px;fill:#000080;fill-opacity:1"
           id="tspan3153-89"
           y="-86.407898"
           x="680.41077"
           sodipodi:role="line">1st diffuser</tspan></text>
      <text
         sodipodi:linespacing="125%"
         id="text3149-77"
         y="-355.41638"
         x="559.30908"
         style="font-size:40px;font-style:normal;font-weight:normal;line-height:125%;letter-spacing:0px;word-spacing:0px;fill:#000080;fill-opacity:1;stroke:none;font-family:Sans"
         xml:space="preserve"><tspan
           style="font-size:14px;fill:#000080;fill-opacity:1"
           id="tspan3153-86"
           y="-355.41638"
           x="559.30908"
           sodipodi:role="line">motor-fan unit</tspan></text>
      <path
         inkscape:connector-curvature="0"
         id="path5022"
         d="m 103.2047,-389.80694 c -3.17861,-1.2094 -5.800936,-2.20686 -5.827388,-2.21655 -0.02641,-0.01 2.627288,-0.97005 5.897188,-2.13413 3.26991,-1.16408 5.95106,-2.10965 5.95811,-2.10127 0.007,0.008 -0.0865,0.16501 -0.20799,0.34809 -0.65068,0.98094 -1.03535,2.11643 -1.14852,3.39037 -0.089,1.00158 0.0108,1.93663 0.30954,2.90199 0.20717,0.66937 0.45494,1.20511 0.87415,1.89019 0.0922,0.15061 0.0923,0.15264 0.009,0.13656 -0.0466,-0.009 -2.68535,-1.00585 -5.86397,-2.21525 z"
         style="fill:#ff0000;fill-opacity:1;stroke:#ff0000;stroke-width:0.05505545;stroke-miterlimit:4;stroke-dasharray:none" />
      <path
         sodipodi:nodetypes="cc"
         inkscape:connector-curvature="0"
         id="path4413-1"
         d="m 97.661027,-413.16951 1.4,323.356018"
         style="fill:none;stroke:#000000;stroke-width:1px;stroke-linecap:butt;stroke-linejoin:miter;stroke-opacity:1" />
      <path
         inkscape:connector-curvature="0"
         id="path5022-7"
         d="m 737.07317,-394.18439 c 3.17861,1.2094 5.80094,2.20686 5.82739,2.21655 0.0264,0.01 -2.62729,0.97005 -5.89719,2.13413 -3.26991,1.16408 -5.95105,2.10965 -5.9581,2.10127 -0.007,-0.008 0.0865,-0.16501 0.20799,-0.34809 0.65068,-0.98094 1.03535,-2.11643 1.14852,-3.39037 0.089,-1.00158 -0.0108,-1.93663 -0.30954,-2.90199 -0.20717,-0.66937 -0.45494,-1.20511 -0.87415,-1.89019 -0.0922,-0.15061 -0.0923,-0.15264 -0.009,-0.13656 0.0466,0.009 2.68534,1.00585 5.86396,2.21525 z"
         style="fill:#ff0000;fill-opacity:1;stroke:#ff0000;stroke-width:0.05505545;stroke-miterlimit:4;stroke-dasharray:none" />
      <path
         sodipodi:nodetypes="cc"
         inkscape:connector-curvature="0"
         id="path4419-7"
         d="m 742.66103,-415.16589 -0.9,301.1104"
         style="fill:none;stroke:#000000;stroke-width:1px;stroke-linecap:butt;stroke-linejoin:miter;stroke-opacity:1" />
      <path
         inkscape:connector-curvature="0"
         id="path5022-8"
         d="m 37.853167,-288.81753 c 1.2094,-3.17861 2.20686,-5.80094 2.21655,-5.82739 0.01,-0.0264 0.97005,2.62729 2.13413,5.89719 1.16408,3.26991 2.10965,5.95106 2.10127,5.95811 -0.008,0.007 -0.16501,-0.0865 -0.34809,-0.20799 -0.98094,-0.65068 -2.11643,-1.03535 -3.39037,-1.14852 -1.00158,-0.089 -1.93663,0.0108 -2.90199,0.30954 -0.66937,0.20717 -1.20511,0.45494 -1.89019,0.87415 -0.15061,0.0922 -0.15264,0.0923 -0.13656,0.009 0.009,-0.0466 1.00585,-2.68535 2.21525,-5.86397 z"
         style="fill:#ff0000;fill-opacity:1;stroke:#ff0000;stroke-width:0.05505545;stroke-miterlimit:4;stroke-dasharray:none" />
      <path
         sodipodi:nodetypes="cc"
         inkscape:connector-curvature="0"
         id="path4415-3"
         d="m 31.559332,-294.50849 734.821698,-6.042"
         style="fill:none;stroke:#000000;stroke-width:1px;stroke-linecap:butt;stroke-linejoin:miter;stroke-opacity:1" />
      <path
         inkscape:connector-curvature="0"
         id="path5022-0"
         d="m 42.161136,-136.19258 c -1.2094,3.17861 -2.20686,5.80094 -2.21655,5.82739 -0.01,0.0264 -0.97005,-2.62729 -2.13413,-5.89719 -1.16408,-3.26991 -2.10965,-5.95106 -2.10127,-5.95811 0.008,-0.007 0.16501,0.0865 0.34809,0.20799 0.98094,0.65068 2.11643,1.03535 3.39037,1.14852 1.00158,0.089 1.93663,-0.0108 2.90199,-0.30954 0.66937,-0.20717 1.20511,-0.45494 1.89019,-0.87415 0.15061,-0.0922 0.15264,-0.0923 0.13656,-0.009 -0.009,0.0466 -1.00585,2.68535 -2.21525,5.86397 z"
         style="fill:#ff0000;fill-opacity:1;stroke:#ff0000;stroke-width:0.05505545;stroke-miterlimit:4;stroke-dasharray:none" />
      <path
         sodipodi:nodetypes="cc"
         inkscape:connector-curvature="0"
         id="path4417-6"
         d="m 23.388097,-130.50849 741.958933,-6.098"
         style="fill:none;stroke:#000000;stroke-width:1px;stroke-linecap:butt;stroke-linejoin:miter;stroke-opacity:1" />
    </g>
  </g>
</svg>
