<?xml version="1.0" encoding="UTF-8" standalone="no"?>
<!-- Created with Inkscape (http://www.inkscape.org/) -->

<svg
   xmlns:dc="http://purl.org/dc/elements/1.1/"
   xmlns:cc="http://creativecommons.org/ns#"
   xmlns:rdf="http://www.w3.org/1999/02/22-rdf-syntax-ns#"
   xmlns:svg="http://www.w3.org/2000/svg"
   xmlns="http://www.w3.org/2000/svg"
   xmlns:sodipodi="http://sodipodi.sourceforge.net/DTD/sodipodi-0.dtd"
   xmlns:inkscape="http://www.inkscape.org/namespaces/inkscape"
   width="497"
   height="250"
   id="svg2"
   version="1.1"
   inkscape:version="0.48.0 r"
   sodipodi:docname="FFT.svg">
  <defs
     id="defs4">
    <marker
       inkscape:stockid="Arrow1Mstart"
       orient="auto"
       refY="0"
       refX="0"
       id="Arrow1Mstart"
       style="overflow:visible">
      <path
         id="path4390"
         d="M 0,0 5,-5 -12.5,0 5,5 0,0 z"
         style="fill-rule:evenodd;stroke:#000000;stroke-width:1pt;marker-start:none"
         transform="matrix(0.4,0,0,0.4,4,0)"
         inkscape:connector-curvature="0" />
    </marker>
    <marker
       inkscape:stockid="Arrow1Lend"
       orient="auto"
       refY="0"
       refX="0"
       id="Arrow1Lend"
       style="overflow:visible">
      <path
         id="path4387"
         d="M 0,0 5,-5 -12.5,0 5,5 0,0 z"
         style="fill-rule:evenodd;stroke:#000000;stroke-width:1pt;marker-start:none"
         transform="matrix(-0.8,0,0,-0.8,-10,0)"
         inkscape:connector-curvature="0" />
    </marker>
    <marker
       inkscape:stockid="Arrow1Mend"
       orient="auto"
       refY="0"
       refX="0"
       id="Arrow1Mend"
       style="overflow:visible">
      <path
         id="path4393"
         d="M 0,0 5,-5 -12.5,0 5,5 0,0 z"
         style="fill-rule:evenodd;stroke:#000000;stroke-width:1pt;marker-start:none"
         transform="matrix(-0.4,0,0,-0.4,-4,0)"
         inkscape:connector-curvature="0" />
    </marker>
  </defs>
  <sodipodi:namedview
     id="base"
     pagecolor="#ffffff"
     bordercolor="#666666"
     borderopacity="1.0"
     inkscape:pageopacity="0.0"
     inkscape:pageshadow="2"
     inkscape:zoom="0.98994949"
     inkscape:cx="194.07072"
     inkscape:cy="259.40141"
     inkscape:document-units="px"
     inkscape:current-layer="layer1"
     showgrid="false"
     inkscape:window-width="1920"
     inkscape:window-height="1006"
     inkscape:window-x="0"
     inkscape:window-y="25"
     inkscape:window-maximized="1" />
  <metadata
     id="metadata7">
    <rdf:RDF>
      <cc:Work
         rdf:about="">
        <dc:format>image/svg+xml</dc:format>
        <dc:type
           rdf:resource="http://purl.org/dc/dcmitype/StillImage" />
        <dc:title></dc:title>
      </cc:Work>
    </rdf:RDF>
  </metadata>
  <g
     inkscape:label="Calque 1"
     inkscape:groupmode="layer"
     id="layer1"
     transform="translate(0,-802.36218)">
    <g
       id="g6249"
       transform="translate(-34.285714,441.71429)">
      <path
         transform="matrix(0.55321796,0,0,0.61711496,298.85596,145.80179)"
         d="m 365.71428,556.64789 c 0,89.15454 -47.6497,161.42857 -106.42857,161.42857 -58.77888,0 -106.42858,-72.27403 -106.42858,-161.42857 0,-89.15454 47.6497,-161.42858 106.42858,-161.42858 58.77887,0 106.42857,72.27404 106.42857,161.42858 z"
         sodipodi:ry="161.42857"
         sodipodi:rx="106.42857"
         sodipodi:cy="556.64789"
         sodipodi:cx="259.28571"
         id="path3208-6"
         style="fill:#b3b3b3;fill-rule:evenodd;stroke:#000000;stroke-width:1px;stroke-linecap:butt;stroke-linejoin:miter;stroke-opacity:1"
         sodipodi:type="arc" />
      <path
         transform="matrix(0.55321796,0,0,0.61711496,-38.071311,145.80179)"
         d="m 365.71428,556.64789 c 0,89.15454 -47.6497,161.42857 -106.42857,161.42857 -58.77888,0 -106.42858,-72.27403 -106.42858,-161.42857 0,-89.15454 47.6497,-161.42858 106.42858,-161.42858 58.77887,0 106.42857,72.27404 106.42857,161.42858 z"
         sodipodi:ry="161.42857"
         sodipodi:rx="106.42857"
         sodipodi:cy="556.64789"
         sodipodi:cx="259.28571"
         id="path3208"
         style="fill:none;stroke:#000000;stroke-width:0.99949741;stroke-linecap:butt;stroke-linejoin:miter;stroke-miterlimit:4;stroke-opacity:1;stroke-dasharray:1.99899483, 0.99949741;stroke-dashoffset:0"
         sodipodi:type="arc" />
      <g
         transform="translate(-23.228257,-12.535164)"
         style="opacity:0.58422941"
         id="g4174">
        <path
           style="fill:#b3b3b3;fill-rule:evenodd;stroke:#000000;stroke-width:0.58429366px;stroke-linecap:butt;stroke-linejoin:miter;stroke-opacity:1"
           d="m 127.86161,401.94644 0,0.28125 c -32.174123,0.67518 -58.125003,45.02729 -58.125003,99.625 0,54.59771 25.95088,98.94982 58.125003,99.625 l 0,0.28125 338.875,0 0,-0.3125 c 31.90135,-1.20008 57.53125,-45.32959 57.53125,-99.59375 0,-54.26416 -25.6299,-98.39367 -57.53125,-99.59375 l 0,-0.3125 -338.875,0 z"
           id="path3208-6-8"
           inkscape:connector-curvature="0" />
        <path
           sodipodi:type="arc"
           style="fill:#b3b3b3;fill-rule:evenodd;stroke:#000000;stroke-width:1px;stroke-linecap:butt;stroke-linejoin:miter;stroke-opacity:1"
           id="path3208-6-81"
           sodipodi:cx="259.28571"
           sodipodi:cy="556.64789"
           sodipodi:rx="106.42857"
           sodipodi:ry="161.42857"
           d="m 365.71428,556.64789 c 0,89.15454 -47.6497,161.42857 -106.42857,161.42857 -58.77888,0 -106.42858,-72.27403 -106.42858,-161.42857 0,-89.15454 47.6497,-161.42858 106.42858,-161.42858 58.77887,0 106.42857,72.27404 106.42857,161.42858 z"
           transform="matrix(0.55321796,0,0,0.61711496,322.02984,158.33695)" />
      </g>
      <path
         transform="matrix(0.55321796,0,0,0.61711496,101.32057,145.80179)"
         d="m 365.71428,556.64789 c 0,89.15454 -47.6497,161.42857 -106.42857,161.42857 -58.77888,0 -106.42858,-72.27403 -106.42858,-161.42857 0,-89.15454 47.6497,-161.42858 106.42858,-161.42858 58.77887,0 106.42857,72.27404 106.42857,161.42858 z"
         sodipodi:ry="161.42857"
         sodipodi:rx="106.42857"
         sodipodi:cy="556.64789"
         sodipodi:cx="259.28571"
         id="path3208-5"
         style="fill:#b3b3b3;fill-rule:evenodd;stroke:#000000;stroke-width:1px;stroke-linecap:butt;stroke-linejoin:miter;stroke-opacity:1"
         sodipodi:type="arc" />
      <path
         transform="matrix(0.27660898,0,0,0.30855748,173.04132,317.55966)"
         d="m 365.71428,556.64789 c 0,89.15454 -47.6497,161.42857 -106.42857,161.42857 -58.77888,0 -106.42858,-72.27403 -106.42858,-161.42857 0,-89.15454 47.6497,-161.42858 106.42858,-161.42858 58.77887,0 106.42857,72.27404 106.42857,161.42858 z"
         sodipodi:ry="161.42857"
         sodipodi:rx="106.42857"
         sodipodi:cy="556.64789"
         sodipodi:cx="259.28571"
         id="path3208-5-0"
         style="fill:#808080;fill-rule:evenodd;stroke:#000000;stroke-width:2px;stroke-linecap:butt;stroke-linejoin:miter;stroke-opacity:1"
         sodipodi:type="arc" />
      <path
         transform="matrix(0.22128718,0,0,0.24684598,187.38548,351.91124)"
         d="m 365.71428,556.64789 c 0,89.15454 -47.6497,161.42857 -106.42857,161.42857 -58.77888,0 -106.42858,-72.27403 -106.42858,-161.42857 0,-89.15454 47.6497,-161.42858 106.42858,-161.42858 58.77887,0 106.42857,72.27404 106.42857,161.42858 z"
         sodipodi:ry="161.42857"
         sodipodi:rx="106.42857"
         sodipodi:cy="556.64789"
         sodipodi:cx="259.28571"
         id="path3208-5-2"
         style="fill:#b3b3b3;fill-rule:evenodd;stroke:#000000;stroke-width:2.5px;stroke-linecap:butt;stroke-linejoin:miter;stroke-opacity:1"
         sodipodi:type="arc" />
      <path
         inkscape:connector-curvature="0"
         id="path4201"
         d="m 104.59349,389.43448 339.18704,0"
         style="fill:none;stroke:#000000;stroke-width:0.60000002;stroke-linecap:butt;stroke-linejoin:miter;stroke-miterlimit:4;stroke-opacity:1;stroke-dasharray:none" />
      <path
         inkscape:connector-curvature="0"
         id="path4201-6"
         d="m 104.58218,589.21181 339.18704,0"
         style="fill:none;stroke:#000000;stroke-width:0.60000002;stroke-linecap:butt;stroke-linejoin:miter;stroke-miterlimit:4;stroke-opacity:1;stroke-dasharray:none" />
      <path
         inkscape:connector-curvature="0"
         id="path4238-7"
         d="m 244.8595,489.31753 138.22576,0"
         style="fill:none;stroke:#000000;stroke-width:0.80000001;stroke-linecap:butt;stroke-linejoin:miter;stroke-miterlimit:4;stroke-opacity:1;stroke-dasharray:3.2, 1.6, 0.8, 1.6;stroke-dashoffset:0" />
      <path
         inkscape:connector-curvature="0"
         id="path4238-7-0"
         d="m 105.33482,489.31753 80.32107,0"
         style="fill:none;stroke:#000000;stroke-width:0.80000001;stroke-linecap:butt;stroke-linejoin:miter;stroke-miterlimit:4;stroke-opacity:1;stroke-dasharray:3.2, 1.6, 0.8, 1.6;stroke-dashoffset:0" />
      <path
         inkscape:connector-curvature="0"
         id="path4238-7-7"
         d="m 444.22875,489.31753 76.56297,0"
         style="fill:none;stroke:#000000;stroke-width:0.80000001;stroke-linecap:butt;stroke-linejoin:miter;stroke-miterlimit:4;stroke-opacity:1;stroke-dasharray:3.2, 1.6, 0.8, 1.6;stroke-dashoffset:0;marker-end:url(#Arrow1Lend)" />
      <flowRoot
         transform="translate(-4.2857143,-14.285714)"
         style="font-size:16px;font-style:normal;font-weight:normal;line-height:125%;letter-spacing:0px;word-spacing:0px;fill:#000000;fill-opacity:1;stroke:none;font-family:Sans"
         id="flowRoot5011"
         xml:space="preserve"><flowRegion
           id="flowRegion5013"><rect
             style="font-size:16px"
             y="507.36218"
             x="515.71429"
             height="28.571384"
             width="18.571455"
             id="rect5015" /></flowRegion><flowPara
           style="font-size:16px"
           id="flowPara5017">z</flowPara></flowRoot>      <path
         transform="matrix(0.24894808,0,0,0.27770173,180.2134,334.39415)"
         d="m 365.71428,556.64789 c 0,89.15454 -47.6497,161.42857 -106.42857,161.42857 -58.77888,0 -106.42858,-72.27403 -106.42858,-161.42857 0,-89.15454 47.6497,-161.42858 106.42858,-161.42858 58.77887,0 106.42857,72.27404 106.42857,161.42858 z"
         sodipodi:ry="161.42857"
         sodipodi:rx="106.42857"
         sodipodi:cy="556.64789"
         sodipodi:cx="259.28571"
         id="path3208-5-9"
         style="fill:none;stroke:#000000;stroke-width:2.22110534;stroke-linecap:butt;stroke-linejoin:miter;stroke-miterlimit:4;stroke-opacity:1;stroke-dasharray:2.22110538, 2.22110538;stroke-dashoffset:0"
         sodipodi:type="arc" />
      <path
         sodipodi:nodetypes="cc"
         inkscape:connector-curvature="0"
         id="path5067"
         d="M 245.32502,489.48624 255.9474,450.5638"
         style="fill:none;stroke:#000000;stroke-width:1px;stroke-linecap:butt;stroke-linejoin:miter;stroke-opacity:1;marker-end:url(#Arrow1Mend)" />
      <flowRoot
         style="font-size:40px;font-style:normal;font-weight:normal;line-height:125%;letter-spacing:0px;word-spacing:0px;fill:#000000;fill-opacity:1;stroke:none;font-family:Sans"
         id="flowRoot5011-1"
         xml:space="preserve"
         transform="translate(-275.24791,-47.657763)"><flowRegion
           id="flowRegion5013-5"><rect
             y="507.36218"
             x="515.71429"
             height="28.571384"
             width="18.571455"
             id="rect5015-1" /></flowRegion><flowPara
           style="font-size:16px"
           id="flowPara5017-4">r</flowPara></flowRoot>      <path
         sodipodi:nodetypes="cc"
         inkscape:connector-curvature="0"
         id="path5466"
         d="m 251.10997,451.2034 1.2072,-10.14135"
         style="fill:none;stroke:#000000;stroke-width:0.49999997;stroke-linecap:butt;stroke-linejoin:miter;stroke-miterlimit:4;stroke-opacity:1;stroke-dasharray:none" />
      <path
         sodipodi:nodetypes="cc"
         inkscape:connector-curvature="0"
         id="path5468"
         d="m 258.97785,457.46767 3.15674,-8.29284"
         style="fill:none;stroke:#000000;stroke-width:0.5;stroke-linecap:butt;stroke-linejoin:miter;stroke-miterlimit:4;stroke-opacity:1;stroke-dasharray:none" />
      <path
         sodipodi:nodetypes="cc"
         inkscape:connector-curvature="0"
         id="path5470"
         d="m 252.50656,439.64152 c 3.8781,1.49378 8.83884,5.36643 10.79601,8.46002"
         style="fill:none;stroke:#000000;stroke-width:0.5;stroke-linecap:butt;stroke-linejoin:miter;stroke-miterlimit:4;stroke-opacity:1;stroke-dasharray:none;marker-start:url(#Arrow1Mstart);marker-end:url(#Arrow1Mend)" />
      <flowRoot
         style="font-size:40px;font-style:normal;font-weight:normal;line-height:125%;letter-spacing:0px;word-spacing:0px;fill:#000000;fill-opacity:1;stroke:none;font-family:Sans"
         id="flowRoot5011-1-6"
         xml:space="preserve"
         transform="translate(-259.48758,-86.16264)"><flowRegion
           id="flowRegion5013-5-3"><rect
             y="507.36218"
             x="515.71429"
             height="28.445143"
             width="26.400154"
             id="rect5015-1-1" /></flowRegion><flowPara
           style="font-size:16px"
           id="flowPara5017-4-9">dθ</flowPara></flowRoot>    </g>
  </g>
  <g
     inkscape:groupmode="layer"
     id="layer3"
     inkscape:label="Calque"
     transform="translate(0,-802.36218)" />
</svg>
